<?xml version="1.0" ?><svg data-name="Layer 1" id="Layer_1" viewBox="0 7 64 50" xmlns="http://www.w3.org/2000/svg"><defs><style>.cls-1{fill:#6e9eff;}.cls-2{fill:#fedb41;}.cls-3{fill:#002849;}</style></defs><title/><path class="cls-1" d="M54.53,35.79a2.53,2.53,0,0,0,0-.26,6.16,6.16,0,0,0-6.17-6.17,5.17,5.17,0,0,0-.63,0l-.34,0h-.18l-.27.07a5.7,5.7,0,0,0-.64.18l-.09,0a6.12,6.12,0,0,0-.6.26,12.44,12.44,0,0,0-12.15-9.82h0c-.4,0-.79,0-1.18.05l-.39.05-.16,0-.16,0-.54.09-.42.1-.46.11a12.84,12.84,0,0,0-1.54.54l-.56.25A11.25,11.25,0,0,0,27,22l-.5.33c-.17.1-.33.23-.49.35l-.31.24-.42.35-.13.11a1.11,1.11,0,0,0-.15.14c-.12.1-.23.22-.35.33l-.41.43c-.14.15-.27.29-.39.45s-.25.3-.37.47a5.48,5.48,0,0,0-.32.46,11.11,11.11,0,0,0-.92,1.59c-.09.18-.17.36-.25.56s-.19.45-.27.69-.1.3-.15.45-.11.38-.16.57-.1.42-.15.62-.1.48-.13.72h-.45a10.75,10.75,0,0,0,0,21.5h33a8.3,8.3,0,0,0,.83-16.55Z"/><path class="cls-2" d="M12.74,34.35a10.72,10.72,0,0,1,7.95-3.51h.45c0-.24.08-.49.13-.72s.1-.43.15-.62.1-.38.16-.57.1-.3.15-.45.17-.46.27-.69.16-.37.25-.56a11.11,11.11,0,0,1,.92-1.59,5.48,5.48,0,0,1,.32-.46c.12-.16.24-.32.37-.47s.25-.3.39-.45l.41-.43c.11-.11.23-.23.35-.33a1.11,1.11,0,0,1,.15-.14,8.69,8.69,0,1,0-12.41,11Z"/><path class="cls-3" d="M9.14,23.54a1,1,0,0,0,1.36-.38,7.69,7.69,0,0,1,13.43,0l-.41.43c-.16.17-.31.34-.41.48v0l0,0h0c-.13.15-.26.31-.38.47a6,6,0,0,0-.35.5l0,0v0h0a11.75,11.75,0,0,0-.95,1.64h0v0c-.09.2-.19.4-.28.61h0v0c-.1.24-.2.48-.28.71s-.12.34-.18.56-.11.36-.15.52v0h0c0,.19-.1.4-.14.59-.38,0-.75,0-1.13.09l-.36.06c-.25,0-.5.08-.74.14l-.42.11-.66.19-.43.16-.61.25-.43.2-.57.3-.41.24L14,32l-.39.28-.51.41-.36.31-.13.11A7.64,7.64,0,0,1,9.53,26.9a1,1,0,0,0-2,0,9.62,9.62,0,0,0,3.76,7.65,11.74,11.74,0,0,0,9.41,18.78H47.4a1,1,0,0,0,0-2H20.69a9.74,9.74,0,0,1-.63-19.46c0,.25,0,.51,0,.76s0,.68,0,1a1,1,0,0,0,1,.92h.08a1,1,0,0,0,.91-1.08c0-.28,0-.57,0-.85a11.56,11.56,0,0,1,.23-2.3h0c0-.18.08-.37.14-.58s.09-.35.16-.54.08-.27.14-.41.15-.39.25-.62.15-.34.23-.5h0A10.46,10.46,0,0,1,24,26.17a4.06,4.06,0,0,1,.26-.37h0c.1-.14.21-.28.36-.45s.21-.26.35-.41l.37-.39c.09-.09.18-.19.29-.27l.14-.13.09-.08,0,0,0,0,.4-.33.26-.21.09-.07c.11-.08.21-.16.38-.26l.46-.3a10.38,10.38,0,0,1,1-.52l.51-.23a12,12,0,0,1,1.42-.5l.43-.11.37-.09.51-.08.22,0,.12,0,.17,0h.11c.36,0,.72,0,1.09,0a11.48,11.48,0,0,1,11,8.33,7.16,7.16,0,0,0-2.25,9.67,1,1,0,1,0,1.72-1,5.16,5.16,0,0,1,2.31-7.34l.23-.1a5.12,5.12,0,0,1,.75-.23l.16,0a5.18,5.18,0,0,1,.91-.09h.08a5.17,5.17,0,0,1,5.17,5.17,1.48,1.48,0,0,1,0,.15,1,1,0,0,0,.9,1.11,7.3,7.3,0,0,1-.73,14.56H51.88a1,1,0,0,0,0,2H53.7a9.3,9.3,0,0,0,1.82-18.42,7.18,7.18,0,0,0-7.12-6.56h-.17l-.4,0-.59.07-.13,0H47a7.09,7.09,0,0,0-.72.18,13.5,13.5,0,0,0-12.84-9.47c-.43,0-.85,0-1.31.06H32l-.28,0-.35,0-.62.1-.39.09-.51.13a13.89,13.89,0,0,0-1.65.58l-.61.27a12.27,12.27,0,0,0-1.14.62c-.19.11-.37.24-.5.33a5.79,5.79,0,0,0-.49.34l0,0a9.68,9.68,0,0,0-16.71.35A1,1,0,0,0,9.14,23.54Z"/><path class="cls-3" d="M17.22,15.12a1,1,0,0,0,1-1V11.66a1,1,0,0,0-2,0v2.46A1,1,0,0,0,17.22,15.12Z"/><path class="cls-3" d="M2,27.88H4.46a1,1,0,0,0,0-2H2a1,1,0,1,0,0,2Z"/><path class="cls-3" d="M7.49,18.56a1,1,0,1,0,1.41-1.41L7.17,15.41a1,1,0,1,0-1.41,1.41Z"/><path class="cls-3" d="M6.46,38.64a1,1,0,0,0,.71-.29l1.74-1.74A1,1,0,0,0,7.49,35.2L5.76,36.93a1,1,0,0,0,.71,1.71Z"/><path class="cls-3" d="M26.25,18.86a1,1,0,0,0,.71-.29l1.74-1.74a1,1,0,0,0-1.41-1.41l-1.74,1.74a1,1,0,0,0,.71,1.71Z"/><path class="cls-3" d="M21.57,35.86a1,1,0,0,0-.5,1.32q.27.58.57,1.14a1,1,0,1,0,1.75-1q-.27-.48-.5-1A1,1,0,0,0,21.57,35.86Z"/></svg>
