<?xml version="1.0" ?><svg data-name="Layer 1" id="Layer_1" viewBox="0 7 64 48" xmlns="http://www.w3.org/2000/svg"><defs><style>.cls-1{fill:#6e9eff;}.cls-2{fill:#fedb41;}.cls-3{fill:#002849;}</style></defs><title/><path class="cls-1" d="M48.66,29.34a5,5,0,0,0-.62,0,3.93,3.93,0,0,0-.44.06l-.08,0-.25.06a4.84,4.84,0,0,0-.8.25.72.72,0,0,0-.19.08A2.1,2.1,0,0,0,46,30a12.16,12.16,0,0,0-11.88-9.6c-.39,0-.77,0-1.15.05l-.38.05-.31,0-.53.08-.41.09-.45.11a12.57,12.57,0,0,0-1.5.53l-.54.25a11,11,0,0,0-1,.56l-.24.15-.23.14h0l0,0c-.17.1-.32.22-.48.34l-.31.24-.41.34-.27.25c-.12.1-.23.21-.34.32l-.4.42c-.14.14-.26.29-.38.44s-.25.3-.36.46a5.33,5.33,0,0,0-.31.45,10.85,10.85,0,0,0-.9,1.55c-.08.18-.17.36-.25.54s-.19.44-.26.67-.1.3-.14.44-.11.37-.16.56-.1.41-.14.61-.09.47-.13.7h-.44a10.5,10.5,0,0,0-9.76,6.61,10.28,10.28,0,0,0-.76,3.9A10.51,10.51,0,0,0,21.59,51.81H53.86a8.11,8.11,0,0,0,.81-16.19,2.47,2.47,0,0,0,0-.25A6,6,0,0,0,48.66,29.34Z"/><path class="cls-2" d="M11.83,37.4a10.5,10.5,0,0,1,9.76-6.61H22c0-.24.08-.48.13-.7s.09-.42.14-.61.1-.37.16-.56.09-.3.14-.44.17-.45.26-.67.16-.36.25-.54a10.85,10.85,0,0,1,.9-1.55,5.33,5.33,0,0,1,.31-.45c.12-.16.24-.31.36-.46s.25-.3.38-.44l.4-.42c.11-.11.22-.22.34-.32l.27-.25.41-.34.31-.24c.16-.12.31-.24.48-.34l0,0h0A12.79,12.79,0,0,0,15.92,12.19c.26.21.51.44.75.68a9.89,9.89,0,0,1-14,14A9.28,9.28,0,0,1,2,26.1a12.79,12.79,0,0,0,9.81,11.3Z"/><path class="cls-3" d="M22.57,36.64a1,1,0,0,0-.5,1.32q.23.5.49,1a1,1,0,1,0,1.75-1q-.23-.4-.42-.83A1,1,0,0,0,22.57,36.64Z"/><path class="cls-3" d="M11.38,28.58a8.89,8.89,0,0,1-8-2.42,8.27,8.27,0,0,1-.6-.67,1,1,0,0,0-1.79.7,13.78,13.78,0,0,0,9.51,11.88,11.37,11.37,0,0,0-.46,3.23A11.52,11.52,0,0,0,21.59,52.81H48.17a1,1,0,1,0,0-2H21.59a9.52,9.52,0,0,1-9.51-9.51,9.28,9.28,0,0,1,.68-3.53,9.42,9.42,0,0,1,8.17-5.93c0,.24,0,.47,0,.71s0,.67,0,1a1,1,0,0,0,1,.92H22a1,1,0,0,0,.91-1.08c0-.28,0-.56,0-.83A12.1,12.1,0,0,1,23,30.93c0-.21.07-.42.11-.64s.09-.38.13-.55.09-.35.16-.54.08-.26.13-.41.15-.39.24-.61.14-.32.23-.5a10.2,10.2,0,0,1,.85-1.46,4.54,4.54,0,0,1,.27-.38c.1-.14.2-.27.35-.44s.21-.25.34-.39l.36-.39.33-.31.22-.2.39-.32.26-.2.09-.07c.1-.08.2-.15.31-.22l.06,0,.07,0,.1-.07.08,0,.2-.13a10.16,10.16,0,0,1,1-.52l.48-.22a11.7,11.7,0,0,1,1.38-.48l.42-.1.36-.08.5-.08.22,0,.12,0,.17,0H33c.35,0,.7,0,1.06,0a11.2,11.2,0,0,1,10.73,8.12,7,7,0,0,0-3.19,5.87,7.11,7.11,0,0,0,1,3.6,1,1,0,1,0,1.72-1,5,5,0,0,1-.71-2.59,5,5,0,0,1,2.79-4.49l0,0h0l.19-.09.1,0h0l.08,0a4.43,4.43,0,0,1,.71-.22l.16,0h.08l.37,0a4.11,4.11,0,0,1,.5,0,5,5,0,0,1,5,5s0,.1,0,.14a1,1,0,0,0,.89,1.11A7.12,7.12,0,0,1,57,50.06a1,1,0,0,0,.89,1.79,9.12,9.12,0,0,0-2.27-17.09,7,7,0,0,0-7-6.42,5.48,5.48,0,0,0-.68,0,5,5,0,0,0-.55.07h-.11l-.26.06-.41.1a13.22,13.22,0,0,0-12.57-9.26c-.42,0-.83,0-1.28.06h-.1l-.28,0-.32,0-.63.1-.38.09-.5.12A13.72,13.72,0,0,0,29,20.4l-.59.27-.43.22a13.67,13.67,0,0,0-3.43-5.71,13.83,13.83,0,0,0-8.51-4A1,1,0,0,0,15.29,13c.24.19.46.4.68.61a8.89,8.89,0,0,1,0,12.57,1,1,0,0,0,1.41,1.41,10.89,10.89,0,0,0,1.36-13.73A11.83,11.83,0,0,1,26.19,22l-.32.25-.41.34-.29.26c-.13.12-.26.24-.39.37l-.42.45c-.16.17-.31.34-.4.46s-.28.34-.41.51a5.84,5.84,0,0,0-.34.49,12,12,0,0,0-1,1.7c-.09.19-.18.38-.26.58s-.2.48-.28.72-.11.33-.15.47-.12.4-.18.61-.1.38-.14.57a11.66,11.66,0,0,0-1.5.15l-.12,0a11.51,11.51,0,0,0-1.37.33l-.17,0a11.43,11.43,0,0,0-1.27.5l-.18.08a11.41,11.41,0,0,0-1.18.66l-.16.11a11.39,11.39,0,0,0-1.09.81l-.13.11a11.4,11.4,0,0,0-1,1l-.08.1a11.41,11.41,0,0,0-.89,1.15l0,0a11.53,11.53,0,0,0-.76,1.31v0a11.8,11.8,0,0,1-7.6-7.28,10.9,10.9,0,0,0,8.1,1.61,1,1,0,1,0-.38-2Z"/></svg>
