<?xml version="1.0" ?><svg data-name="Layer 1" id="Layer_1" viewBox="0 7 64 50" xmlns="http://www.w3.org/2000/svg"><defs><style>.cls-1{fill:#6e9eff;}.cls-2{fill:#002849;}</style></defs><title/><path class="cls-1" d="M53.4,31.45a2.58,2.58,0,0,0,0-.31,7.11,7.11,0,0,0-7.94-7.06h0a7,7,0,0,0-.75.13l-.11,0c-.23.06-.45.12-.66.2l-.08,0a7.06,7.06,0,0,0-.69.3,14.35,14.35,0,0,0-14-11.32c-.49,0-1,0-1.44.08l-.21,0c-.39,0-.78.1-1.16.18l-.39.09c-.31.07-.63.15-.93.24l-.45.15c-.27.09-.55.19-.81.3l-.48.21-.73.35-.48.26-.67.41-.47.31-.61.46-.44.36c-.19.16-.38.34-.56.51l-.41.39c-.18.19-.36.39-.53.58s-.24.26-.35.4-.38.5-.57.76l-.22.3q-.37.54-.68,1.12c-.07.12-.12.25-.18.37-.14.27-.28.55-.4.83s-.12.3-.18.46-.21.54-.3.81-.09.32-.14.48-.16.56-.22.85-.06.32-.09.48-.08.35-.1.53h-.53a12.39,12.39,0,0,0,0,24.78H52.44a9.56,9.56,0,0,0,1-19.08Z"/><path class="cls-2" d="M48.83,49.53H14.39A11.39,11.39,0,0,1,5.27,31.32a1,1,0,1,0-1.6-1.2A13.39,13.39,0,0,0,14.39,51.53H48.83a1,1,0,0,0,0-2Z"/><path class="cls-2" d="M54.39,30.59A8.12,8.12,0,0,0,46.33,23h0a8.1,8.1,0,0,0-1.2.1l-.12,0a8.05,8.05,0,0,0-1.17.28,15.42,15.42,0,0,0-14.7-11c-.5,0-1,0-1.49.08l-.44.06c-.32,0-.64.08-1,.15l-.68.15-.64.17-.81.26-.42.16c-.31.12-.62.24-.92.38l-.21.1a15.41,15.41,0,0,0-4.91,3.7l-.12.14c-.22.25-.42.51-.62.78l-.25.34c-.17.23-.33.47-.48.71l-.31.51c-.12.21-.25.43-.36.65s-.22.45-.33.68-.17.36-.25.55-.24.63-.35.94c0,.12-.09.24-.13.37-.14.47-.27.94-.37,1.42a13.33,13.33,0,0,0-6.66,2,1,1,0,1,0,1,1.71,11.33,11.33,0,0,1,5.36-1.63c0,.34-.05.69-.05,1s0,.77,0,1.15a1,1,0,0,0,1,.93h.07a1,1,0,0,0,.92-1.07c0-.33,0-.66,0-1A13.33,13.33,0,0,1,16,25.39c0-.14,0-.27.08-.41s.14-.56.22-.84.08-.28.12-.41.18-.51.28-.76.11-.3.17-.44.2-.42.3-.62.17-.35.26-.52l.17-.28A13.51,13.51,0,0,1,21.28,17l.05,0c.29-.21.59-.4.89-.59l.13-.08c.29-.17.58-.33.88-.48l.22-.11q.41-.2.84-.36l.35-.13L25.4,15l.54-.14.63-.15c.29-.06.58-.1.87-.13l.36-.05c.43,0,.87-.07,1.32-.07h0A13.4,13.4,0,0,1,42,24.3a8.1,8.1,0,0,0-2.64,11,1,1,0,1,0,1.72-1,6.1,6.1,0,0,1,2.53-8.59h0a5.82,5.82,0,0,1,.61-.26l.06,0a6,6,0,0,1,.62-.19h0a6.11,6.11,0,0,1,7.5,5.95,1.45,1.45,0,0,1,0,.18,1,1,0,0,0,.89,1.12A8.56,8.56,0,0,1,55,49.14a1,1,0,0,0,.3,2,1,1,0,0,0,.3,0,10.56,10.56,0,0,0-1.19-20.47Z"/><path class="cls-2" d="M16.57,35.79a1,1,0,0,0,.87-1.49c-.18-.32-.35-.65-.5-1a1,1,0,1,0-1.82.82q.26.58.57,1.14A1,1,0,0,0,16.57,35.79Z"/></svg>
