<?xml version="1.0" ?><svg data-name="Layer 1" id="Layer_1" viewBox="0 0 64 60" xmlns="http://www.w3.org/2000/svg"><defs><style>.cls-1{fill:#6e9eff;}.cls-2{fill:#002849;}</style></defs><title/><path class="cls-1" d="M53.4,23.72a2.58,2.58,0,0,0,0-.31,7.11,7.11,0,0,0-7.94-7.06h0a7,7,0,0,0-.75.13l-.11,0c-.23.06-.45.12-.66.2l-.08,0a7.06,7.06,0,0,0-.69.3,14.35,14.35,0,0,0-14-11.32c-.49,0-1,0-1.44.08l-.21,0c-.39,0-.78.1-1.16.18l-.39.09c-.31.07-.63.15-.93.24l-.45.15c-.27.09-.55.19-.81.3L23.25,7l-.73.35L22,7.62,21.37,8l-.47.31-.61.46-.44.36c-.19.16-.38.34-.56.51l-.41.39c-.18.19-.36.39-.53.58s-.24.26-.35.4-.38.5-.57.76l-.22.3q-.37.54-.68,1.12c-.07.12-.12.25-.18.37-.14.27-.28.55-.4.83s-.12.3-.18.46-.21.54-.3.81-.09.32-.14.48-.16.56-.22.85-.06.32-.09.48-.08.35-.1.53h-.53a12.39,12.39,0,0,0,0,24.78H52.44a9.56,9.56,0,0,0,1-19.08Z"/><path class="cls-2" d="M19.4,54.09a1,1,0,0,0,1-.74l1.53-5.7A1,1,0,0,0,20,47.13l-1.53,5.7a1,1,0,0,0,1,1.26Z"/><path class="cls-2" d="M31.24,54.09a1,1,0,0,0,1-.74l1.53-5.7a1,1,0,0,0-1.93-.52l-1.53,5.7a1,1,0,0,0,1,1.26Z"/><path class="cls-2" d="M43.07,54.09a1,1,0,0,0,1-.74l1.53-5.7a1,1,0,0,0-1.93-.52l-1.53,5.7a1,1,0,0,0,1,1.26Z"/><path class="cls-2" d="M24.3,58.27a1,1,0,0,0,1-.74l2.65-9.88A1,1,0,0,0,26,47.13L23.34,57a1,1,0,0,0,1,1.26Z"/><path class="cls-2" d="M35.87,59.26a1,1,0,0,0,1-.74l2.91-10.87a1,1,0,1,0-1.93-.52L34.9,58a1,1,0,0,0,1,1.26Z"/><path class="cls-2" d="M14.39,43.79H42.75a1,1,0,0,0,0-2H14.39A11.39,11.39,0,0,1,6.81,21.9,1,1,0,0,0,5.48,20.4a13.39,13.39,0,0,0,8.9,23.39Z"/><path class="cls-2" d="M10.05,19.86A11.28,11.28,0,0,1,13.82,19c0,.35-.05.69-.05,1s0,.77,0,1.15a1,1,0,0,0,1,.93h.08a1,1,0,0,0,.92-1.07q0-.5,0-1A13.33,13.33,0,0,1,16,17.65c0-.14,0-.27.08-.41s.14-.56.22-.84.08-.28.12-.41.18-.51.28-.76.11-.3.17-.44.2-.42.3-.62.17-.35.26-.52l.17-.29a13.51,13.51,0,0,1,3.67-4.05l.06,0c.28-.21.58-.4.88-.58l.14-.09c.28-.17.57-.32.86-.47L23.45,8q.4-.19.82-.36l.37-.14.74-.25L26,7.13l.6-.14c.3-.06.6-.1.91-.14l.32,0c.43,0,.88-.07,1.32-.07h0A13.4,13.4,0,0,1,42,16.56a8.1,8.1,0,0,0-2.64,11,1,1,0,0,0,1.72-1,6.1,6.1,0,0,1,2.53-8.59,5.82,5.82,0,0,1,.6-.26l.08,0a6,6,0,0,1,.59-.17l.07,0a6.1,6.1,0,0,1,7.49,5.95,1.53,1.53,0,0,1,0,.18,1,1,0,0,0,.89,1.12,8.56,8.56,0,0,1-.86,17.08H47.75a1,1,0,0,0,0,2h4.69a10.56,10.56,0,0,0,2-20.94,8.12,8.12,0,0,0-8.06-7.54h0a8.1,8.1,0,0,0-1.19.1l-.14,0a8,8,0,0,0-1.16.27,15.42,15.42,0,0,0-14.7-11c-.5,0-1,0-1.49.08l-.41.05c-.33,0-.66.09-1,.15l-.66.15-.66.17-.8.25-.44.16c-.31.12-.61.24-.91.38l-.22.11a15.41,15.41,0,0,0-4.91,3.7l-.11.12c-.22.25-.43.52-.63.79l-.25.33c-.17.24-.33.48-.49.72l-.3.49c-.13.22-.25.43-.37.66s-.22.44-.32.67-.17.37-.25.57-.23.61-.34.92c0,.13-.09.26-.14.39-.14.46-.27.94-.37,1.42a13.28,13.28,0,0,0-4.78,1,1,1,0,1,0,.76,1.85Z"/><path class="cls-2" d="M15.62,25.07a1,1,0,0,0-.5,1.32q.26.58.57,1.14a1,1,0,1,0,1.75-1q-.27-.48-.5-1A1,1,0,0,0,15.62,25.07Z"/></svg>
