<?xml version="1.0" ?><svg data-name="Layer 1" id="Layer_1" viewBox="0 3 64 58" xmlns="http://www.w3.org/2000/svg"><defs><style>.cls-1{fill:#002849;}.cls-2{fill:#6e9eff;}.cls-3{fill:#fedb41;}</style></defs><title/><path class="cls-1" d="M2,22.69H4.46a1,1,0,1,0,0-2H2a1,1,0,0,0,0,2Z"/><path class="cls-2" d="M18.46,47.15h33a8.3,8.3,0,0,0,.83-16.55,2.53,2.53,0,0,0,0-.26,6.16,6.16,0,0,0-6.17-6.17,5.18,5.18,0,0,0-.63,0l-.34,0H45l-.27.07a5.7,5.7,0,0,0-.64.18l-.09,0a6.13,6.13,0,0,0-.6.26A12.44,12.44,0,0,0,31.24,15h0c-.4,0-.79,0-1.18.05l-.39.05-.32,0-.54.09-.42.1-.46.11A12.83,12.83,0,0,0,26.4,16l-.56.25a11.25,11.25,0,0,0-1.06.57l-.5.33c-.17.1-.33.23-.49.35l-.31.24-.42.35-.13.11a1.11,1.11,0,0,0-.15.14c-.12.1-.23.22-.35.33l-.41.43c-.14.15-.27.29-.39.45s-.25.3-.37.47a5.49,5.49,0,0,0-.32.46A11.12,11.12,0,0,0,20,22.05c-.09.18-.17.36-.25.56s-.19.45-.27.69-.1.3-.15.45-.11.38-.16.57-.1.42-.15.62-.1.48-.13.72h-.45a10.75,10.75,0,1,0,0,21.5Z"/><path class="cls-3" d="M10.52,29.17a10.72,10.72,0,0,1,7.95-3.51h.45c0-.24.08-.49.13-.72s.1-.43.15-.62.1-.38.16-.57.1-.3.15-.45.17-.46.27-.69.16-.37.25-.56a11.12,11.12,0,0,1,.92-1.59,5.49,5.49,0,0,1,.32-.46c.12-.16.24-.32.37-.47s.25-.3.39-.45l.41-.43c.11-.11.23-.23.35-.33a1.11,1.11,0,0,1,.15-.14,8.69,8.69,0,1,0-12.41,11Z"/><path class="cls-1" d="M18.37,58.52a1,1,0,0,0,1-.74l1.53-5.7a1,1,0,0,0-1.93-.52l-1.53,5.7a1,1,0,0,0,1,1.26Z"/><path class="cls-1" d="M30.2,58.52a1,1,0,0,0,1-.74l1.53-5.7a1,1,0,0,0-1.93-.52l-1.53,5.7a1,1,0,0,0,1,1.26Z"/><path class="cls-1" d="M42,58.52a1,1,0,0,0,1-.74l1.53-5.7a1,1,0,0,0-1.93-.52l-1.53,5.7a1,1,0,0,0,1,1.26Z"/><path class="cls-1" d="M6.68,19A1,1,0,0,0,8,18.49,7.69,7.69,0,0,1,21.71,18l-.41.43c-.16.17-.31.34-.41.48l0,0,0,0h0c-.13.15-.26.31-.38.47a6,6,0,0,0-.35.5l0,0h0a11.91,11.91,0,0,0-1,1.64v0c-.1.2-.19.4-.27.61h0c-.1.24-.21.49-.29.73s-.12.34-.16.48v.05l0,.07-.14.48v0h0c-.05.19-.1.4-.14.6-.38,0-.75,0-1.13.09l-.36.06c-.25,0-.5.08-.75.14l-.42.11-.66.19-.43.16-.62.25-.42.2-.58.3-.41.24-.55.36-.38.28-.52.42-.35.3-.13.11A7.64,7.64,0,0,1,7.3,21.72a1,1,0,0,0-2,0,9.62,9.62,0,0,0,3.76,7.65,11.74,11.74,0,0,0,9.41,18.78H45a1,1,0,0,0,0-2H18.46a9.74,9.74,0,0,1-.63-19.46c0,.25,0,.51,0,.76s0,.68,0,1a1,1,0,0,0,1,.92h.08a1,1,0,0,0,.91-1.08c0-.29,0-.57,0-.85a11.54,11.54,0,0,1,.23-2.3h0c0-.19.09-.39.14-.59s.09-.34.15-.53.08-.27.14-.41.16-.41.25-.63.15-.34.23-.51A10.56,10.56,0,0,1,21.8,21a4.64,4.64,0,0,1,.27-.39c.1-.14.21-.27.36-.45s.21-.26.35-.4l.36-.39.29-.28.13-.13h0l.1-.08h0l0,0,.4-.33.26-.21.09-.07a4.48,4.48,0,0,1,.37-.26l.46-.3a10.15,10.15,0,0,1,1-.52l.51-.23a11.86,11.86,0,0,1,1.41-.5l.43-.11.37-.08.52-.08.22,0,.12,0,.18,0h.11c.36,0,.72,0,1.09,0a11.48,11.48,0,0,1,11,8.33A7.16,7.16,0,0,0,40,34a1,1,0,0,0,1.72-1A5.16,5.16,0,0,1,44,25.64l.23-.1a5.11,5.11,0,0,1,.75-.23l.16,0a5.18,5.18,0,0,1,.91-.09h.08a5.17,5.17,0,0,1,5.17,5.17s0,.1,0,.15a1,1,0,0,0,.89,1.11,7.3,7.3,0,0,1-.73,14.56h-2.6a1,1,0,0,0,0,2h2.6a9.3,9.3,0,0,0,1.82-18.42,7.18,7.18,0,0,0-7.12-6.56H46l-.4,0-.57.07-.15,0h-.09a7.1,7.1,0,0,0-.72.18A13.5,13.5,0,0,0,31.24,14c-.43,0-.85,0-1.31.06h-.11l-.29,0-.33,0-.64.11-.39.09-.51.13a13.81,13.81,0,0,0-1.65.58l-.61.27a12.12,12.12,0,0,0-1.14.62c-.19.11-.37.24-.5.33a5.92,5.92,0,0,0-.49.34l0,0a9.68,9.68,0,0,0-17,1A1,1,0,0,0,6.68,19Z"/><path class="cls-1" d="M15,9.93a1,1,0,0,0,1-1V6.48a1,1,0,1,0-2,0V8.93A1,1,0,0,0,15,9.93Z"/><path class="cls-1" d="M5.26,13.38A1,1,0,0,0,6.68,12L4.94,10.23a1,1,0,0,0-1.41,1.41Z"/><path class="cls-1" d="M4.23,33.45a1,1,0,0,0,.71-.29l1.74-1.74A1,1,0,0,0,5.26,30L3.53,31.75a1,1,0,0,0,.71,1.71Z"/><path class="cls-1" d="M24,13.67a1,1,0,0,0,.71-.29l1.74-1.74A1,1,0,0,0,25,10.23L23.31,12A1,1,0,0,0,24,13.67Z"/><path class="cls-1" d="M20.42,31.2a1,1,0,1,0-1.82.82q.26.58.57,1.14a1,1,0,0,0,1.75-1Q20.64,31.7,20.42,31.2Z"/></svg>
