<?xml version="1.0" ?><svg data-name="Layer 1" id="Layer_1" viewBox="0 3 64 58" xmlns="http://www.w3.org/2000/svg"><defs><style>.cls-1{fill:#6e9eff;}.cls-2{fill:#fedb41;}.cls-3{fill:#002849;}</style></defs><title/><path class="cls-1" d="M54.68,30.61a2.47,2.47,0,0,0,0-.25,6,6,0,0,0-6-6,5.06,5.06,0,0,0-.62,0,3.94,3.94,0,0,0-.44.06l-.08,0-.25.06a4.84,4.84,0,0,0-.8.25.72.72,0,0,0-.19.08A2.1,2.1,0,0,0,46,25a12.16,12.16,0,0,0-11.88-9.6c-.39,0-.77,0-1.15.05l-.38.05-.31,0-.53.08-.41.09-.45.11a12.55,12.55,0,0,0-1.5.53l-.54.25a11,11,0,0,0-1,.56l-.24.15-.23.14h0l0,0c-.17.1-.32.22-.48.34l-.31.24-.41.34-.27.25c-.12.1-.23.21-.34.32l-.4.42c-.14.14-.26.29-.38.44s-.25.3-.36.46a5.34,5.34,0,0,0-.31.45,10.86,10.86,0,0,0-.9,1.55c-.08.18-.17.36-.25.54s-.19.44-.26.67-.1.3-.14.44-.11.37-.16.56-.1.41-.14.61-.09.47-.13.7h-.44a10.5,10.5,0,0,0-9.76,6.61,10.28,10.28,0,0,0-.76,3.9A10.51,10.51,0,0,0,21.59,46.8H53.86a8.11,8.11,0,0,0,.81-16.19Z"/><path class="cls-2" d="M11.83,32.38a10.5,10.5,0,0,1,9.76-6.61H22c0-.24.08-.48.13-.7s.09-.42.14-.61.1-.37.16-.56.09-.3.14-.44.17-.45.26-.67.16-.36.25-.54A10.86,10.86,0,0,1,24,20.7a5.34,5.34,0,0,1,.31-.45c.12-.16.24-.31.36-.46s.25-.3.38-.44l.4-.42c.11-.11.22-.22.34-.32l.27-.25.41-.34.31-.24c.16-.12.31-.24.48-.34l0,0h0A12.79,12.79,0,0,0,15.92,7.18c.26.21.51.44.75.68a9.89,9.89,0,1,1-14,14A9.28,9.28,0,0,1,2,21.09a12.79,12.79,0,0,0,9.81,11.3Z"/><path class="cls-3" d="M53.87,45.8H52.25a1,1,0,0,0,0,2h1.62a9.11,9.11,0,0,0,1.8-18,7,7,0,0,0-7-6.42,5.49,5.49,0,0,0-.68,0,4.88,4.88,0,0,0-.56.07h-.1l-.26.06-.41.1a13.22,13.22,0,0,0-12.57-9.26c-.42,0-.83,0-1.29.06h-.11l-.28,0-.32,0-.63.1-.38.09-.5.12a13.47,13.47,0,0,0-1.61.56l-.59.27-.43.23a13.67,13.67,0,0,0-3.43-5.72,13.83,13.83,0,0,0-8.51-4A1,1,0,0,0,15.29,8c.24.19.46.4.67.61a8.88,8.88,0,0,1-3.64,14.76,1,1,0,1,0,.59,1.91A10.88,10.88,0,0,0,18.74,8.81,11.83,11.83,0,0,1,26.19,17l-.33.25-.41.34-.29.26c-.14.12-.27.25-.4.38l-.42.45c-.16.17-.31.34-.4.47s-.28.34-.41.51a5.82,5.82,0,0,0-.34.49,11.9,11.9,0,0,0-1,1.69c-.09.2-.19.39-.27.6s-.2.48-.28.71-.11.33-.15.47-.12.4-.18.61-.1.38-.14.57a11.65,11.65,0,0,0-1.5.15l-.12,0a11.49,11.49,0,0,0-1.37.33l-.17,0a11.43,11.43,0,0,0-1.27.5l-.18.08a11.38,11.38,0,0,0-1.18.65l-.17.11a11.37,11.37,0,0,0-1.09.81L14,27.6a11.39,11.39,0,0,0-1,1l-.09.1a11.41,11.41,0,0,0-.89,1.15l0,0a11.53,11.53,0,0,0-.76,1.31v0a11.8,11.8,0,0,1-7.6-7.28,10.9,10.9,0,0,0,5.11,1.77,1,1,0,1,0,.17-2,8.89,8.89,0,0,1-5.52-2.55,8.29,8.29,0,0,1-.6-.67,1,1,0,0,0-1.79.7,13.78,13.78,0,0,0,9.51,11.88,11.37,11.37,0,0,0-.46,3.23A11.52,11.52,0,0,0,21.59,47.8H46.47a1,1,0,0,0,0-2H21.59a9.52,9.52,0,0,1-9.51-9.51,9.28,9.28,0,0,1,.68-3.53,9.42,9.42,0,0,1,8.17-5.93c0,.24,0,.47,0,.71s0,.67,0,1a1,1,0,0,0,1,.92H22a1,1,0,0,0,.91-1.08c0-.28,0-.56,0-.83A12.08,12.08,0,0,1,23,25.92c0-.21.07-.42.11-.64s.09-.38.13-.56.09-.34.15-.53.08-.26.13-.41.15-.39.24-.61.15-.33.23-.5a10.2,10.2,0,0,1,.85-1.46c.08-.12.17-.25.27-.38s.2-.27.35-.44.21-.25.34-.39l.35-.38c.09-.09.18-.19.34-.32l.22-.2.39-.33.26-.2.09-.07a3.67,3.67,0,0,1,.31-.22l.06,0,.07-.05.09-.06h0l.07,0,.21-.13a10,10,0,0,1,.94-.51l.5-.23a11.59,11.59,0,0,1,1.38-.48l.42-.1.36-.08.5-.08.22,0,.12,0,.17,0H33c.35,0,.71,0,1.07,0a11.2,11.2,0,0,1,10.73,8.12,7,7,0,0,0-3.19,5.87,7.11,7.11,0,0,0,1,3.6,1,1,0,1,0,1.72-1,5,5,0,0,1-.71-2.59,5,5,0,0,1,2.79-4.49l0,0h0l.19-.09.09,0h0l.08,0a4.47,4.47,0,0,1,.71-.22l.16,0h.07l.37,0a4.13,4.13,0,0,1,.5,0,5,5,0,0,1,5,5c0,.05,0,.11,0,.15a1,1,0,0,0,.9,1.1,7.11,7.11,0,0,1-.72,14.19Z"/><path class="cls-3" d="M22.57,31.63a1,1,0,0,0-.5,1.32q.23.5.49,1a1,1,0,1,0,1.75-1q-.23-.4-.42-.83A1,1,0,0,0,22.57,31.63Z"/><path class="cls-3" d="M24,50.86l-1.53,5.7a1,1,0,1,0,1.93.52l1.53-5.7A1,1,0,1,0,24,50.86Z"/><path class="cls-3" d="M35.8,50.86l-1.53,5.7a1,1,0,1,0,1.93.52l1.53-5.7a1,1,0,1,0-1.93-.52Z"/><path class="cls-3" d="M47.63,50.86l-1.53,5.7a1,1,0,1,0,1.93.52l1.53-5.7a1,1,0,1,0-1.93-.52Z"/></svg>
