<?xml version="1.0" ?><svg data-name="Layer 1" id="Layer_1" viewBox="0 0 64 60" xmlns="http://www.w3.org/2000/svg"><defs><style>.cls-1{fill:#6e9eff;}.cls-2{fill:#002849;}</style></defs><title/><path class="cls-1" d="M53.4,23.72a2.58,2.58,0,0,0,0-.31,7.11,7.11,0,0,0-7.94-7.06h0a7,7,0,0,0-.75.13l-.11,0c-.23.06-.45.12-.66.2l-.08,0a7.06,7.06,0,0,0-.69.3,14.35,14.35,0,0,0-14-11.32c-.49,0-1,0-1.44.08l-.21,0c-.39,0-.78.1-1.16.18l-.39.09c-.31.07-.63.15-.93.24l-.45.15c-.27.09-.55.19-.81.3L23.25,7l-.73.35L22,7.62,21.37,8l-.47.31-.61.46-.44.36c-.19.16-.38.34-.56.51l-.41.39c-.18.19-.36.39-.53.58s-.24.26-.35.4-.38.5-.57.76l-.22.3q-.37.54-.68,1.12c-.07.12-.12.25-.18.37-.14.27-.28.55-.4.83s-.12.3-.18.46-.21.54-.3.81-.09.32-.14.48-.16.56-.22.85-.06.32-.09.48-.08.35-.1.53h-.53a12.39,12.39,0,0,0,0,24.78H52.44a9.56,9.56,0,0,0,1-19.08Z"/><path class="cls-2" d="M60,40.64a1,1,0,0,0-1.42-1.4,8.5,8.5,0,0,1-6.1,2.55H38.67a1,1,0,0,0,0,2H52.44A10.49,10.49,0,0,0,60,40.64Z"/><path class="cls-2" d="M18.17,10.76a1,1,0,0,0,1.41,0,13.24,13.24,0,0,1,9.53-4A13.4,13.4,0,0,1,42,16.56a8.1,8.1,0,0,0-2.64,11,1,1,0,0,0,1.72-1,6.1,6.1,0,0,1,2.53-8.59,5.82,5.82,0,0,1,.6-.26l.08,0a6,6,0,0,1,.59-.17l.07,0a6.1,6.1,0,0,1,7.49,5.95,1.53,1.53,0,0,1,0,.18,1,1,0,0,0,.89,1.12,8.57,8.57,0,0,1,7.14,11.57,1,1,0,1,0,1.87.71,10.57,10.57,0,0,0-7.92-14.14,8.12,8.12,0,0,0-8.06-7.54h0a8.1,8.1,0,0,0-1.19.1l-.14,0a8,8,0,0,0-1.16.27,15.42,15.42,0,0,0-14.7-11,15.23,15.23,0,0,0-11,4.61A1,1,0,0,0,18.17,10.76Z"/><path class="cls-2" d="M14.39,43.79h8.86a1,1,0,1,0,0-2H14.39A11.38,11.38,0,0,1,13.83,19c0,.35-.06.7-.06,1s0,.77,0,1.15a1,1,0,0,0,1,.93h.08a1,1,0,0,0,.92-1.07q0-.5,0-1a13.45,13.45,0,0,1,.31-2.85,13.3,13.3,0,0,1,.78-2.42A1,1,0,1,0,15,14a15.28,15.28,0,0,0-.87,2.74l0,0s0,.06,0,.09l0,.13a13.39,13.39,0,0,0,.31,26.78Z"/><path class="cls-2" d="M15.62,25.07a1,1,0,0,0-.5,1.32q.26.58.57,1.14a1,1,0,1,0,1.75-1q-.27-.48-.5-1A1,1,0,0,0,15.62,25.07Z"/><path class="cls-2" d="M19.4,54.09a1,1,0,0,0,1-.74l1.53-5.7A1,1,0,0,0,20,47.13l-1.53,5.7a1,1,0,0,0,1,1.26Z"/><path class="cls-2" d="M31,54.05a1,1,0,0,0,1.22-.71L35.73,40.2a1,1,0,0,0-1-1.26H28.22l3.19-11.89a1,1,0,0,0-1.93-.52L26,39.68a1,1,0,0,1,0,.26s0,0,0,.07a1.47,1.47,0,0,0,.1.37,1.55,1.55,0,0,0,.23.3l.15.1a1,1,0,0,0,.18.09l.06,0a1,1,0,0,0,.26,0h6.54L30.27,52.83A1,1,0,0,0,31,54.05Z"/><path class="cls-2" d="M43.63,47.13l-1.53,5.7a1,1,0,1,0,1.93.52l1.53-5.7a1,1,0,0,0-1.93-.52Z"/><path class="cls-2" d="M23.89,55,23.34,57a1,1,0,1,0,1.93.52l.55-2.05A1,1,0,1,0,23.89,55Z"/><path class="cls-2" d="M25.37,53.29a1,1,0,0,0,1.22-.71l1.32-4.94A1,1,0,0,0,26,47.13l-1.32,4.94A1,1,0,0,0,25.37,53.29Z"/><path class="cls-2" d="M39.35,49.14l.4-1.49a1,1,0,1,0-1.93-.52l-.4,1.49a1,1,0,1,0,1.93.52Z"/><path class="cls-2" d="M35.61,59.23a1,1,0,0,0,1.22-.71l1.85-6.9a1,1,0,1,0-1.93-.52L34.9,58A1,1,0,0,0,35.61,59.23Z"/></svg>
