<?xml version="1.0" ?><svg data-name="Layer 1" id="Layer_1" viewBox="0 0 64 64" xmlns="http://www.w3.org/2000/svg"><defs><style>.cls-1{fill:#c6d2db;}</style></defs><title/><path class="cls-1" d="M59.58,33H62a1,1,0,0,0,0-2H59.58l3.09-2.81a1,1,0,0,0-1.35-1.48L56.61,31h-8.9L44.4,21.47l5.71-5.71,6.37-.3a1,1,0,0,0-.09-2l-4.17.2,2.16-2.16A1,1,0,0,0,53,10.08L50.8,12.24,51,8.07a1,1,0,0,0-1-1,1,1,0,0,0-1,1l-.3,6.37L43.2,19.84,33,16.29V7.39l4.29-4.71a1,1,0,1,0-1.48-1.35L33,4.42V2a1,1,0,1,0-2,0V4.42L28.19,1.33a1,1,0,1,0-1.48,1.35L31,7.39v8.9l-9.87,3.43-5.38-5.38L15.46,8a1,1,0,0,0-2,.09l.2,4.17-2.16-2.16a1,1,0,0,0-1.41,1.41l2.16,2.16-4.17-.2a1,1,0,0,0-1,1,1,1,0,0,0,1,1l6.37.3,5.38,5.38L16.29,31H8L3.32,26.71A1,1,0,0,0,2,28.19L5.06,31H2a1,1,0,1,0,0,2H5.06L2,35.81a1,1,0,1,0,1.35,1.48L8,33h8.26l3.55,10.2L14.34,48.7,8,49a1,1,0,0,0,.09,2l4.17-.2-1.71,1.71a1,1,0,1,0,1.41,1.41l1.71-1.71-.2,4.17a1,1,0,0,0,1,1h0a1,1,0,0,0,1-1l.3-6.37,5.71-5.71L31,47.71V56l-4.29,4.71A1,1,0,1,0,28.19,62L31,58.94V62a1,1,0,0,0,2,0V58.94L35.81,62a1,1,0,1,0,1.48-1.35L33,56V47.71l9.87-3.43,5.83,5.83.3,6.37a1,1,0,0,0,1,1h0a1,1,0,0,0,1-1l-.2-4.17,1.71,1.71a1,1,0,0,0,1.41-1.41L52.21,50.8l4.17.2a1,1,0,0,0,1-1,1,1,0,0,0-1-1l-6.37-.3-5.83-5.83L47.71,33h8.9l4.71,4.29a1,1,0,0,0,1.35-1.48ZM42.71,41.29l-2.9-2.9-1.46-1.46L39.71,33h5.88l-2.44,7ZM21.29,22.71l2.9,2.9,1.46,1.46L24.29,31H18.41l2.44-7ZM45.59,31H39.71l-1.25-3.59L42.83,23l.35,1Zm-16,0H26.41l.82-2.36,2.15,2.14Zm4.83,2h3.18l-.82,2.36-2.15-2.14Zm.45-2,.18-.18L36.89,29l.47,1.34.24.68Zm.83-3.66L33,30V26.41l.68.23ZM31,29.59l-2.36-2.36,1.6-.56.76-.26ZM26.41,33H30l-2.7,2.7-.07-.22ZM29,36.89l2-2v2.72l-.65-.23Zm4-2.47,2,2,.35.35-1.6.56-.76.26Zm8.63-13-2.52,2.52-1.84,1.84L33,24.29V18.41l1.64.57ZM31,24.29l-3.93,1.37-4.36-4.36L29.42,19,31,18.41ZM18.41,33h5.88l1.48,4.27-4.36,4.36-.54-1.55ZM23,42.83l4.36-4.36.07,0L31,39.71v5.88l-1.52-.53Zm10-3.11,3.93-1.37,4.36,4.36L34.58,45,33,45.59Z"/></svg>